
<svg xmlns="http://www.w3.org/2000/svg" viewBox="0 0 1398 321" class="your-custom-classes" width="140" height="32">
          <defs>
            <linearGradient id="linear-gradient" x1="-1119.19" y1="-852.9" x2="-1077.44" y2="-920.63" gradientTransform="translate(1394.8 -340.26) rotate(14.41) scale(1 -1)" gradientUnits="userSpaceOnUse">
              <stop offset="0" stop-color="#1a1a1a"></stop>
              <stop offset="1" stop-color="#ec0001"></stop>
            </linearGradient>
            <linearGradient id="linear-gradient-2" x1="-1118.71" y1="-828.67" x2="-1085.93" y2="-844.76" xlink:href="#linear-gradient"></linearGradient>
            <linearGradient id="linear-gradient-3" x1="-1045.88" y1="-802.17" x2="-1045.26" y2="-842.37" xlink:href="#linear-gradient"></linearGradient>
            <linearGradient id="linear-gradient-4" x1="335.24" y1="683.42" x2="228.59" y2="707.84" gradientTransform="translate(176.45 -629.51) rotate(14.41)" xlink:href="#linear-gradient"></linearGradient>
          </defs>
          <g style="isolation: isolate">
            <g>
              <path d="M916.63,73.44h11.48l47.45,170.14h.51l48.21-170.14h14.03l48.98,170.14h.51l46.68-170.14h11.99l-52.29,182.13h-12.75l-50-172.44h-.51l-49.23,172.44h-12.5l-52.55-182.13ZM1246.19,229.55h-.51c-1.53,3.91-3.74,7.61-6.63,11.1-2.89,3.49-6.42,6.59-10.59,9.31-4.17,2.72-8.89,4.85-14.16,6.38-5.27,1.53-11.05,2.3-17.35,2.3-13.94,0-24.74-3.02-32.4-9.06-7.65-6.04-11.48-15.35-11.48-27.93,0-7.65,1.53-13.9,4.59-18.75,3.06-4.85,6.93-8.67,11.61-11.48,4.68-2.81,9.86-4.8,15.56-5.99,5.7-1.19,11.18-2.04,16.45-2.55l15.05-1.28c6.97-.51,12.46-1.32,16.45-2.42,4-1.11,7.01-2.64,9.06-4.59,2.04-1.96,3.32-4.46,3.83-7.52.51-3.06.77-6.89.77-11.48,0-3.57-.68-6.89-2.04-9.95-1.36-3.06-3.49-5.78-6.38-8.16-2.89-2.38-6.63-4.25-11.22-5.61-4.59-1.36-10.2-2.04-16.84-2.04-11.73,0-21.21,2.89-28.44,8.67-7.23,5.78-11.18,14.54-11.86,26.27h-9.69c.68-14.45,5.31-25.3,13.9-32.52,8.59-7.23,20.79-10.84,36.6-10.84s27.34,3.1,34.56,9.31c7.23,6.21,10.84,14.33,10.84,24.36v76.27c0,1.87.04,3.74.13,5.61.09,1.87.38,3.57.89,5.1.51,1.53,1.36,2.76,2.55,3.7,1.19.94,2.89,1.4,5.1,1.4,1.7,0,4.08-.26,7.14-.77v8.16c-2.55.68-5.19,1.02-7.91,1.02-3.91,0-7.01-.51-9.31-1.53-2.3-1.02-4.04-2.38-5.23-4.08-1.19-1.7-2-3.7-2.42-5.99-.43-2.3-.64-4.8-.64-7.52v-6.89ZM1246.19,181.08c-2.38,2.89-5.99,4.85-10.84,5.87-4.85,1.02-10.25,1.79-16.2,2.3l-16.33,1.53c-4.76.51-9.52,1.23-14.28,2.17-4.76.94-9.06,2.51-12.88,4.72-3.83,2.21-6.93,5.23-9.31,9.06-2.38,3.83-3.57,8.8-3.57,14.92,0,9.69,3.06,16.88,9.18,21.55,6.12,4.68,14.54,7.01,25.25,7.01s19.81-2,26.27-5.99c6.46-4,11.39-8.59,14.79-13.77,3.4-5.19,5.57-10.2,6.5-15.05.94-4.85,1.4-8.12,1.4-9.82v-24.49ZM1270.94,124.46h11.48l48.72,119.63,44.89-119.63h10.97l-56.12,145.14c-2.72,6.46-5.23,12.03-7.52,16.71-2.3,4.68-4.89,8.12-7.78,10.33-3.4,2.72-7.44,4.38-12.12,4.97-4.68.6-10.84.89-18.49.89v-8.42c6.97,0,12.41-.55,16.33-1.66,3.91-1.11,7.57-3.36,10.97-6.76,1.87-1.87,3.83-5.31,5.87-10.33,2.04-5.02,4.59-11.86,7.65-20.53l-54.84-130.35Z" style="fill: rgb(236, 0, 1); mix-blend-mode: multiply"></path>
              <path d="M407.53,221.18v-114.79h28.57c9.86,0,18.15,1.4,24.87,4.21,6.72,2.81,12.12,6.84,16.2,12.12,4.08,5.27,7.01,11.61,8.8,19,1.79,7.4,2.68,15.69,2.68,24.87,0,10.03-1.28,18.54-3.83,25.51-2.55,6.97-5.95,12.63-10.2,16.96-4.25,4.34-9.1,7.44-14.54,9.31-5.44,1.87-11.05,2.81-16.84,2.81h-35.71ZM367.48,72.72v182.13h78.57c13.94,0,26.06-2.34,36.35-7.01,10.29-4.68,18.88-11.1,25.76-19.26,6.89-8.16,12.03-17.86,15.43-29.08,3.4-11.22,5.1-23.47,5.1-36.73,0-15.13-2.08-28.31-6.25-39.54-4.17-11.22-9.95-20.58-17.35-28.06-7.4-7.48-16.16-13.09-26.27-16.84-10.12-3.74-21.04-5.61-32.78-5.61h-78.57ZM641.44,174.76h-58.92c.17-2.55.72-5.44,1.66-8.67.94-3.23,2.55-6.29,4.85-9.18,2.3-2.89,5.36-5.31,9.18-7.27,3.83-1.96,8.63-2.93,14.41-2.93,8.84,0,15.43,2.38,19.77,7.14,4.34,4.76,7.35,11.73,9.06,20.92h0ZM582.51,197.71h95.15c.68-10.2-.17-19.98-2.55-29.33-2.38-9.35-6.25-17.69-11.61-25-5.36-7.31-12.2-13.14-20.53-17.47-8.33-4.34-18.11-6.5-29.33-6.5-10.03,0-19.17,1.79-27.42,5.36-8.25,3.57-15.35,8.46-21.3,14.67-5.95,6.21-10.54,13.56-13.77,22.06-3.23,8.5-4.85,17.69-4.85,27.55s1.57,19.56,4.72,28.06c3.15,8.5,7.61,15.82,13.39,21.94,5.78,6.12,12.84,10.84,21.17,14.16,8.33,3.32,17.69,4.97,28.06,4.97,14.96,0,27.72-3.4,38.26-10.2,10.54-6.8,18.37-18.11,23.47-33.93h-31.89c-1.19,4.08-4.42,7.95-9.69,11.61-5.27,3.66-11.56,5.48-18.88,5.48-10.2,0-18.03-2.64-23.47-7.91-5.44-5.27-8.42-13.77-8.93-25.51h0ZM697.56,163.53c.51-8.5,2.64-15.56,6.38-21.17,3.74-5.61,8.5-10.12,14.28-13.52,5.78-3.4,12.29-5.82,19.51-7.27,7.23-1.45,14.5-2.17,21.81-2.17,6.63,0,13.35.47,20.15,1.4,6.8.94,13.01,2.76,18.62,5.48,5.61,2.72,10.2,6.5,13.77,11.35,3.57,4.85,5.36,11.27,5.36,19.26v68.62c0,5.95.34,11.65,1.02,17.09.68,5.44,1.87,9.52,3.57,12.24h-36.73c-.68-2.04-1.23-4.12-1.66-6.25-.43-2.13-.72-4.29-.89-6.5-5.78,5.95-12.58,10.12-20.41,12.5-7.82,2.38-15.82,3.57-23.98,3.57-6.29,0-12.16-.77-17.6-2.3-5.44-1.53-10.2-3.91-14.28-7.14-4.08-3.23-7.27-7.31-9.57-12.24-2.3-4.93-3.44-10.8-3.44-17.6,0-7.48,1.32-13.65,3.95-18.49,2.64-4.85,6.04-8.72,10.2-11.61,4.17-2.89,8.93-5.06,14.28-6.5,5.36-1.45,10.76-2.59,16.2-3.44,5.44-.85,10.8-1.53,16.07-2.04,5.27-.51,9.95-1.28,14.03-2.3,4.08-1.02,7.31-2.51,9.69-4.46,2.38-1.96,3.49-4.8,3.32-8.55,0-3.91-.64-7.01-1.91-9.31-1.28-2.3-2.98-4.08-5.1-5.36-2.13-1.28-4.59-2.13-7.4-2.55-2.81-.43-5.82-.64-9.06-.64-7.14,0-12.75,1.53-16.84,4.59-4.08,3.06-6.46,8.16-7.14,15.3h-36.22ZM781.22,190.32c-1.53,1.36-3.44,2.42-5.74,3.19-2.3.77-4.76,1.4-7.4,1.91-2.64.51-5.4.94-8.29,1.28-2.89.34-5.78.77-8.67,1.28-2.72.51-5.4,1.19-8.04,2.04-2.64.85-4.93,2-6.89,3.44-1.96,1.45-3.53,3.27-4.72,5.48-1.19,2.21-1.79,5.02-1.79,8.42s.6,5.95,1.79,8.16c1.19,2.21,2.81,3.95,4.85,5.23,2.04,1.28,4.42,2.17,7.14,2.68,2.72.51,5.53.77,8.42.77,7.14,0,12.67-1.19,16.58-3.57,3.91-2.38,6.8-5.23,8.67-8.55,1.87-3.32,3.02-6.67,3.44-10.08.43-3.4.64-6.12.64-8.16v-13.52ZM846.52,72.72v182.13h36.22V72.72h-36.22Z"></path>
            </g>
            <g>
              <polygon points="167.59 314.03 78.85 259.43 137.28 240.01 167.59 314.03" style="fill: url('#linear-gradient')"></polygon>
              <polyline points="78.78 259.69 130.22 195.48 256.28 215.08" style="fill: url('#linear-gradient-2')"></polyline>
              <polyline points="78.78 259.69 130.22 195.48 256.28 215.08" style="
                  fill: url('#linear-gradient-3');
                  mix-blend-mode: multiply;
                "></polyline>
              <polyline points="255.58 215.13 27.53 189.88 6.97 6 261.75 78.31" style="fill: url('#linear-gradient-4')"></polyline>
              <g style="mix-blend-mode: multiply">
                <polygon points="220.24 95.25 225.63 104.16 194.06 133.78 221.57 175.28 215.52 181.26 181.62 131.08 220.24 95.25" style="fill: rgb(198, 156, 109)"></polygon>
                <polygon points="162.11 79.36 168.51 89.09 133.13 120.54 165.78 165.67 159.02 172.03 118.74 117.42 162.11 79.36" style="fill: rgb(198, 156, 109)"></polygon>
                <polygon points="94.73 60.95 102.42 71.66 62.35 105.16 101.47 154.6 93.87 161.39 45.53 101.51 94.73 60.95" style="fill: rgb(198, 156, 109)"></polygon>
              </g>
              <g>
                <polygon points="225.93 95.77 231.23 104.62 200.01 134.04 227.06 175.26 221.07 181.2 187.75 131.36 225.93 95.77" style="fill: rgb(242, 242, 242)"></polygon>
                <polygon points="168.64 80.04 174.93 89.69 139.97 120.92 172.04 165.72 165.36 172.03 125.81 117.83 168.64 80.04" style="fill: rgb(242, 242, 242)"></polygon>
                <polygon points="102.31 61.82 109.85 72.44 70.31 105.7 108.69 154.73 101.18 161.47 53.76 102.08 102.31 61.82" style="fill: rgb(242, 242, 242)"></polygon>
              </g>
            </g>
          </g>
        </svg>